<?xml version="1.0" encoding="utf-8"?>
<!-- Generator: Adobe Illustrator 22.0.1, SVG Export Plug-In . SVG Version: 6.00 Build 0)  -->
<svg version="1.1" id="Layer_1" xmlns="http://www.w3.org/2000/svg" xmlns:xlink="http://www.w3.org/1999/xlink" x="0px" y="0px"
	 viewBox="0 0 505 133.8" style="enable-background:new 0 0 505 133.8;" xml:space="preserve">
<style type="text/css">
	.st0{fill:#FFFFFF;}
	.st1{fill:#FF7338;}
	.st2{fill:none;stroke:#FFFFFF;stroke-width:1.9183;stroke-miterlimit:10;}
	.st3{fill:none;stroke:#FFFFFF;stroke-width:1.9183;stroke-miterlimit:10;stroke-dasharray:7.6339,7.6339;}
	.st4{fill:none;stroke:#FFFFFF;stroke-width:1.9183;stroke-miterlimit:10;stroke-dasharray:7.3632,7.3632;}
	.st5{fill:none;}
</style>
<g>
	<path class="st0" d="M192.2,47.8c-1.4,0-2.5-0.2-3.4-0.6v-2c1.2,0.3,2.3,0.4,3.3,0.4c3.6,0,5.4-2,5.4-5.9V6.6h2.3v32.9
		C199.9,45,197.3,47.8,192.2,47.8z"/>
	<path class="st0" d="M223.3,39.5l-0.6-3.9h-0.2c-1.2,1.6-2.5,2.7-3.8,3.3s-2.8,1-4.6,1c-2.4,0-4.3-0.6-5.6-1.8s-2-2.9-2-5.1
		c0-2.4,1-4.2,3-5.6s4.9-2,8.6-2.1l4.7-0.1v-1.6c0-2.3-0.5-4.1-1.4-5.3c-0.9-1.2-2.5-1.8-4.6-1.8c-2.3,0-4.6,0.6-7,1.9l-0.8-1.9
		c2.7-1.3,5.3-1.9,8-1.9c2.7,0,4.7,0.7,6,2.1c1.3,1.4,2,3.6,2,6.5v16.3H223.3z M214.3,37.9c2.6,0,4.7-0.7,6.2-2.2
		c1.5-1.5,2.3-3.6,2.3-6.2V27l-4.3,0.2c-3.4,0.2-5.9,0.7-7.3,1.6c-1.5,0.9-2.2,2.3-2.2,4.2c0,1.5,0.5,2.7,1.4,3.6
		S212.6,37.9,214.3,37.9z"/>
	<path class="st0" d="M263.3,39.5v-16c0-2.4-0.5-4.1-1.4-5.2c-0.9-1.1-2.4-1.6-4.3-1.6c-2.5,0-4.4,0.7-5.6,2.1
		c-1.2,1.4-1.8,3.5-1.8,6.5v14.3H248V22.8c0-4.1-1.9-6.2-5.7-6.2c-2.6,0-4.4,0.7-5.6,2.2S235,22.7,235,26v13.5h-2.2V15h1.8l0.5,3.3
		h0.1c0.7-1.2,1.6-2.2,2.9-2.8c1.2-0.7,2.6-1,4.1-1c3.9,0,6.3,1.4,7.4,4.3h0.1c0.8-1.4,1.9-2.5,3.2-3.2c1.3-0.7,2.9-1.1,4.6-1.1
		c2.7,0,4.7,0.7,6,2.1c1.3,1.4,2,3.7,2,6.8v16H263.3z"/>
	<path class="st0" d="M283.3,39.9c-3.6,0-6.3-1.1-8.3-3.3c-2-2.2-3-5.3-3-9.2c0-3.9,1-7,2.9-9.4c1.9-2.3,4.5-3.5,7.8-3.5
		c2.9,0,5.1,1,6.8,3s2.5,4.7,2.5,8.2v1.8h-17.6c0,3.4,0.8,5.9,2.3,7.7c1.5,1.8,3.7,2.7,6.6,2.7c1.4,0,2.6-0.1,3.7-0.3s2.4-0.6,4-1.3
		v2c-1.4,0.6-2.7,1-3.8,1.2C286,39.8,284.7,39.9,283.3,39.9z M282.7,16.5c-2.4,0-4.2,0.8-5.7,2.3s-2.3,3.8-2.5,6.7h15.1
		c0-2.8-0.6-5-1.8-6.6S284.8,16.5,282.7,16.5z"/>
	<path class="st0" d="M313.9,33.1c0,2.2-0.8,3.9-2.5,5c-1.7,1.2-4,1.8-7.1,1.8c-3.3,0-5.9-0.5-7.8-1.5V36c2.5,1.2,5.1,1.8,7.8,1.8
		c2.4,0,4.2-0.4,5.5-1.2c1.3-0.8,1.9-1.9,1.9-3.2c0-1.2-0.5-2.3-1.5-3.1s-2.6-1.7-4.9-2.5c-2.4-0.9-4.2-1.6-5.1-2.3
		s-1.7-1.4-2.2-2.2c-0.5-0.8-0.8-1.8-0.8-2.9c0-1.8,0.8-3.3,2.3-4.3c1.5-1.1,3.7-1.6,6.4-1.6c2.6,0,5.1,0.5,7.5,1.5l-0.8,2
		c-2.4-1-4.6-1.5-6.7-1.5c-2,0-3.6,0.3-4.7,1s-1.8,1.6-1.8,2.7c0,1.3,0.5,2.3,1.4,3.1c0.9,0.8,2.7,1.6,5.3,2.6
		c2.2,0.8,3.8,1.5,4.8,2.1c1,0.6,1.8,1.4,2.3,2.2C313.6,31.1,313.9,32,313.9,33.1z"/>
	<path class="st0" d="M357.6,22.7c0,5.5-1.4,9.7-4.3,12.5c-2.9,2.8-7.1,4.2-12.7,4.2h-7.9V6.6h8.9c5.2,0,9.2,1.4,12,4.1
		C356.3,13.5,357.6,17.5,357.6,22.7z M355.1,22.8c0-4.7-1.2-8.2-3.6-10.6c-2.4-2.4-5.9-3.6-10.5-3.6h-6v28.8h5.4
		C350.2,37.4,355.1,32.6,355.1,22.8z"/>
	<path class="st0" d="M384.8,27.2c0,4-1,7.1-2.9,9.3c-1.9,2.2-4.6,3.4-8,3.4c-2.1,0-4-0.5-5.7-1.6c-1.6-1-2.9-2.5-3.8-4.5
		c-0.9-1.9-1.3-4.2-1.3-6.7c0-4,1-7.1,2.9-9.3s4.6-3.3,8-3.3c3.4,0,6,1.1,7.9,3.4C383.9,20.2,384.8,23.3,384.8,27.2z M365.6,27.2
		c0,3.4,0.7,6,2.2,7.9c1.5,1.9,3.6,2.8,6.3,2.8c2.7,0,4.8-0.9,6.3-2.8c1.5-1.9,2.2-4.5,2.2-7.9c0-3.4-0.7-6-2.2-7.8
		s-3.6-2.8-6.3-2.8c-2.7,0-4.8,0.9-6.2,2.8S365.6,23.8,365.6,27.2z"/>
	<path class="st0" d="M401.5,39.9c-3.6,0-6.3-1.1-8.3-3.3c-2-2.2-3-5.3-3-9.2c0-3.9,1-7,2.9-9.4c1.9-2.3,4.5-3.5,7.8-3.5
		c2.9,0,5.1,1,6.8,3c1.7,2,2.5,4.7,2.5,8.2v1.8h-17.6c0,3.4,0.8,5.9,2.3,7.7s3.7,2.7,6.6,2.7c1.4,0,2.6-0.1,3.7-0.3s2.4-0.6,4-1.3v2
		c-1.4,0.6-2.7,1-3.8,1.2C404.2,39.8,402.9,39.9,401.5,39.9z M400.8,16.5c-2.4,0-4.2,0.8-5.7,2.3c-1.4,1.6-2.3,3.8-2.5,6.7h15.1
		c0-2.8-0.6-5-1.8-6.6S403,16.5,400.8,16.5z"/>
</g>
<g>
	<path class="st1" d="M213.2,88.7l-3.3-9.1h-12.6l-3.2,9.1h-5.7l12.3-33h5.8l12.3,33H213.2z M208.5,74.9l-3.1-8.9
		c-0.2-0.6-0.5-1.5-0.9-2.8c-0.4-1.3-0.7-2.2-0.8-2.8c-0.4,1.8-1,3.9-1.8,6l-3,8.6H208.5z"/>
	<path class="st1" d="M235.3,63.4c1.1,0,1.9,0.1,2.6,0.2l-0.5,4.9c-0.7-0.2-1.5-0.3-2.3-0.3c-2.1,0-3.8,0.7-5.1,2.1s-2,3.2-2,5.4v13
		h-5.3V63.8h4.1l0.7,4.4h0.3c0.8-1.5,1.9-2.7,3.2-3.5C232.3,63.8,233.8,63.4,235.3,63.4z"/>
	<path class="st1" d="M252.6,89.2c-3.8,0-6.6-1.1-8.6-3.3c-2-2.2-2.9-5.3-2.9-9.5c0-4.2,1-7.4,3.1-9.6c2-2.2,5-3.4,8.9-3.4
		c2.6,0,5,0.5,7.1,1.5l-1.6,4.2c-2.2-0.9-4.1-1.3-5.5-1.3c-4.3,0-6.5,2.9-6.5,8.6c0,2.8,0.5,4.9,1.6,6.3c1.1,1.4,2.6,2.1,4.7,2.1
		c2.4,0,4.6-0.6,6.7-1.8v4.6c-0.9,0.6-2,1-3,1.2C255.4,89,254.1,89.2,252.6,89.2z"/>
	<path class="st1" d="M287.2,88.7h-5.3V73.4c0-1.9-0.4-3.3-1.2-4.3c-0.8-0.9-2-1.4-3.7-1.4c-2.2,0-3.8,0.7-4.9,2
		c-1,1.3-1.6,3.5-1.6,6.7v12.3h-5.3v-35h5.3v8.9c0,1.4-0.1,2.9-0.3,4.6h0.3c0.7-1.2,1.7-2.1,3-2.8c1.3-0.7,2.8-1,4.5-1
		c6,0,9,3,9,9.1V88.7z"/>
	<path class="st1" d="M294.2,57.3c0-0.9,0.3-1.7,0.8-2.2c0.5-0.5,1.3-0.8,2.2-0.8c0.9,0,1.7,0.3,2.2,0.8c0.5,0.5,0.8,1.2,0.8,2.2
		c0,0.9-0.3,1.6-0.8,2.1c-0.5,0.5-1.2,0.8-2.2,0.8c-1,0-1.7-0.3-2.2-0.8C294.5,58.9,294.2,58.2,294.2,57.3z M299.8,88.7h-5.3V63.8
		h5.3V88.7z"/>
	<path class="st1" d="M316.7,84.9c1.3,0,2.6-0.2,3.9-0.6v4c-0.6,0.3-1.3,0.5-2.3,0.6c-0.9,0.2-1.9,0.3-2.9,0.3c-5,0-7.5-2.6-7.5-7.9
		V67.8h-3.4v-2.3l3.6-1.9l1.8-5.3h3.3v5.5h7.1v4h-7.1v13.3c0,1.3,0.3,2.2,1,2.8C314.8,84.6,315.6,84.9,316.7,84.9z"/>
	<path class="st1" d="M336.3,89.2c-3.9,0-6.9-1.1-9.1-3.4c-2.2-2.3-3.3-5.4-3.3-9.3c0-4.1,1-7.3,3-9.6c2-2.3,4.8-3.5,8.3-3.5
		c3.3,0,5.9,1,7.8,3s2.9,4.7,2.9,8.2v2.9h-16.6c0.1,2.4,0.7,4.3,2,5.6c1.2,1.3,3,1.9,5.2,1.9c1.5,0,2.8-0.1,4.1-0.4s2.6-0.7,4.1-1.4
		v4.3c-1.3,0.6-2.6,1-3.9,1.3C339.5,89,338,89.2,336.3,89.2z M335.4,67.4c-1.7,0-3,0.5-4,1.6c-1,1.1-1.6,2.6-1.8,4.7h11.3
		c0-2.1-0.5-3.6-1.5-4.7C338.4,67.9,337.1,67.4,335.4,67.4z"/>
	<path class="st1" d="M362,89.2c-3.8,0-6.6-1.1-8.6-3.3c-2-2.2-2.9-5.3-2.9-9.5c0-4.2,1-7.4,3.1-9.6s5-3.4,8.9-3.4
		c2.6,0,5,0.5,7.1,1.5l-1.6,4.2c-2.2-0.9-4.1-1.3-5.5-1.3c-4.3,0-6.5,2.9-6.5,8.6c0,2.8,0.5,4.9,1.6,6.3c1.1,1.4,2.6,2.1,4.7,2.1
		c2.4,0,4.6-0.6,6.7-1.8v4.6c-0.9,0.6-2,1-3,1.2C364.9,89,363.6,89.2,362,89.2z"/>
	<path class="st1" d="M384.1,84.9c1.3,0,2.6-0.2,3.9-0.6v4c-0.6,0.3-1.3,0.5-2.3,0.6c-0.9,0.2-1.9,0.3-2.9,0.3c-5,0-7.5-2.6-7.5-7.9
		V67.8h-3.4v-2.3l3.6-1.9l1.8-5.3h3.3v5.5h7.1v4h-7.1v13.3c0,1.3,0.3,2.2,1,2.8C382.2,84.6,383,84.9,384.1,84.9z"/>
	<path class="st1" d="M410.4,88.7l-0.7-3.3h-0.3c-0.7,1.2-1.8,2.1-3.1,2.7c-1.4,0.7-2.9,1-4.6,1c-3,0-5.3-0.7-6.7-2.2
		s-2.2-3.8-2.2-6.8V63.8h5.3v15.3c0,1.9,0.4,3.3,1.2,4.3s2,1.4,3.7,1.4c2.2,0,3.8-0.7,4.9-2c1-1.3,1.6-3.5,1.6-6.7V63.8h5.3v24.9
		H410.4z"/>
	<path class="st1" d="M434.7,63.4c1.1,0,1.9,0.1,2.6,0.2l-0.5,4.9c-0.7-0.2-1.5-0.3-2.3-0.3c-2.1,0-3.8,0.7-5.1,2.1s-2,3.2-2,5.4v13
		h-5.3V63.8h4.1l0.7,4.4h0.3c0.8-1.5,1.9-2.7,3.2-3.5S433.2,63.4,434.7,63.4z"/>
	<path class="st1" d="M452.8,89.2c-3.9,0-6.9-1.1-9.1-3.4c-2.2-2.3-3.3-5.4-3.3-9.3c0-4.1,1-7.3,3-9.6c2-2.3,4.8-3.5,8.3-3.5
		c3.3,0,5.9,1,7.8,3s2.9,4.7,2.9,8.2v2.9h-16.6c0.1,2.4,0.7,4.3,2,5.6c1.2,1.3,3,1.9,5.2,1.9c1.5,0,2.8-0.1,4.1-0.4s2.6-0.7,4.1-1.4
		v4.3c-1.3,0.6-2.6,1-3.9,1.3C456,89,454.5,89.2,452.8,89.2z M451.9,67.4c-1.7,0-3,0.5-4,1.6c-1,1.1-1.6,2.6-1.8,4.7h11.3
		c0-2.1-0.5-3.6-1.5-4.7C454.9,67.9,453.6,67.4,451.9,67.4z"/>
</g>
<polygon class="st0" points="170.6,88.5 104.9,11.8 39.2,88.5 29.6,88.5 104.9,0 180.2,88.5 "/>
<polygon class="st1" points="98.9,0 77.5,0 0.6,88.5 21.9,88.5 "/>
<polygon class="st0" points="104.9,43.8 66.5,88.5 143,88.5 "/>
<g>
	<g>
		<line class="st2" x1="0" y1="94.5" x2="3.8" y2="94.5"/>
		<line class="st3" x1="11.5" y1="94.5" x2="496.2" y2="94.5"/>
		<line class="st2" x1="500" y1="94.5" x2="503.9" y2="94.5"/>
	</g>
</g>
<g>
	<g>
		<line class="st2" x1="465.9" y1="132.8" x2="465.9" y2="129"/>
		<line class="st4" x1="465.9" y1="121.6" x2="465.9" y2="7.5"/>
		<line class="st2" x1="465.9" y1="3.8" x2="465.9" y2="0"/>
	</g>
</g>
<g>
	<path class="st5" d="M471.1,118"/>
</g>
</svg>
